<?xml version="1.0" standalone="no"?>
<!DOCTYPE svg PUBLIC "-//W3C//DTD SVG 20010904//EN"
 "http://www.w3.org/TR/2001/REC-SVG-20010904/DTD/svg10.dtd">
<svg version="1.0" xmlns="http://www.w3.org/2000/svg"
 width="512.000000pt" height="512.000000pt" viewBox="0 0 512.000000 512.000000"
 preserveAspectRatio="xMidYMid meet">

<g transform="translate(0.000000,512.000000) scale(0.100000,-0.100000)"
fill="#000000" stroke="none">
<path d="M2536 4924 c-14 -13 -16 -62 -16 -379 l0 -363 -44 -59 c-66 -87 -426
-436 -546 -529 -170 -132 -495 -346 -656 -432 -279 -150 -354 -183 -439 -193
-42 -4 -84 -14 -92 -20 -12 -10 -14 -50 -11 -232 l3 -219 27 -23 c15 -13 31
-24 37 -26 5 -2 15 -65 20 -139 27 -348 30 -370 97 -678 l19 -83 -48 -143
c-113 -335 -355 -826 -508 -1033 -22 -29 -39 -59 -39 -67 0 -8 12 -24 26 -35
l27 -21 2172 3 c2121 2 2173 2 2194 21 29 26 27 39 -18 99 -153 207 -395 698
-508 1033 l-48 143 19 83 c67 308 70 330 97 678 5 74 15 137 20 139 6 2 22 13
37 26 l27 23 3 219 c3 182 1 222 -11 232 -8 6 -50 16 -92 20 -85 10 -160 43
-439 193 -161 86 -486 300 -656 432 -120 93 -480 442 -546 529 -36 49 -44 67
-44 103 l0 44 333 0 c311 0 335 1 350 18 15 16 17 52 17 295 l0 277 -27 7
c-16 4 -173 7 -350 7 -296 1 -323 2 -323 18 0 17 -25 48 -40 48 -5 0 -16 -7
-24 -16z m324 -188 c0 -100 6 -96 -136 -96 l-124 0 0 80 0 80 130 0 130 0 0
-64z m380 49 c0 -13 -24 -15 -160 -15 -136 0 -160 2 -160 15 0 13 24 15 160
15 136 0 160 -2 160 -15z m-5 -95 c0 -13 -25 -15 -157 -18 -154 -2 -158 -2
-158 18 0 20 4 20 158 18 132 -3 157 -5 157 -18z m3 -92 c-4 -10 -78 -13 -324
-13 -175 -1 -249 1 -164 2 85 2 159 8 164 13 16 16 329 13 324 -2z m0 -85 c3
-10 -65 -13 -317 -13 -280 0 -321 2 -321 15 0 13 39 15 317 13 242 -2 317 -6
321 -15z m-3 -88 c0 -6 -114 -11 -317 -13 -280 -2 -318 0 -318 13 0 13 38 15
318 13 203 -2 317 -7 317 -13z m0 -75 c4 -7 -103 -10 -314 -10 -207 0 -321 4
-321 10 0 6 111 10 314 10 199 0 317 -4 321 -10z m-734 -457 c-60 -118 -199
-269 -408 -443 -201 -167 -330 -256 -548 -379 l-180 -101 -155 0 -155 0 197
104 c210 111 530 320 728 475 63 50 210 184 325 298 l210 208 3 -62 c2 -46 -2
-72 -17 -100z m639 -344 c198 -155 519 -364 728 -475 l197 -104 -155 0 -155 0
-180 101 c-210 119 -343 209 -527 361 -212 174 -334 303 -413 433 -31 52 -35
67 -35 125 l0 67 213 -209 c116 -115 264 -249 327 -299z m-620 147 l0 -94
-132 -141 c-195 -207 -424 -409 -533 -470 -37 -20 -51 -21 -192 -19 l-153 3
123 69 c302 170 708 503 844 692 21 30 39 54 41 54 1 0 2 -42 2 -94z m251
-106 c174 -178 492 -420 716 -546 l123 -69 -153 -3 c-141 -2 -155 -1 -192 19
-109 61 -338 263 -532 470 l-133 141 0 96 0 95 49 -64 c27 -35 82 -98 122
-139z m-403 -415 c-214 -212 -205 -206 -317 -203 l-92 3 98 80 c53 44 178 159
278 256 l180 177 3 -81 3 -81 -153 -151z m695 -120 l98 -80 -92 -3 c-112 -3
-102 -9 -316 202 l-153 151 0 84 0 83 183 -178 c101 -99 227 -215 280 -259z
m-564 -8 c-53 -76 -54 -77 -152 -77 l-89 0 128 128 129 127 3 -73 c2 -62 -1
-78 -19 -105z m248 34 l117 -112 -94 3 -94 3 -38 50 c-36 48 -38 53 -38 130 0
73 1 78 15 58 8 -11 68 -71 132 -132z m-1817 -351 c0 -194 -8 -220 -68 -220
-21 0 -43 5 -50 12 -8 8 -12 65 -12 190 l0 178 65 0 65 0 0 -160z m210 -14 c0
-169 -1 -175 -22 -190 -30 -21 -68 -20 -95 3 -22 19 -23 25 -23 190 l0 171 70
0 70 0 0 -174z m193 67 c13 -196 10 -231 -18 -258 -27 -28 -42 -30 -80 -13
l-25 11 0 184 0 183 58 0 59 0 6 -107z m187 -27 c0 -73 3 -146 6 -162 4 -22
-1 -36 -20 -59 -22 -26 -29 -28 -53 -19 -42 14 -52 57 -52 227 l-1 147 60 0
60 0 0 -134z m170 -35 c0 -164 -1 -171 -24 -197 l-23 -28 -26 26 c-25 25 -25
27 -26 197 l-2 171 51 0 50 0 0 -169z m188 -6 c-3 -160 -5 -175 -23 -189 -27
-21 -51 -20 -75 4 -18 18 -20 33 -20 190 l0 170 61 0 61 0 -4 -175z m173 23
c1 -181 0 -199 -13 -215 -16 -20 -53 -15 -74 10 -19 20 -20 33 -16 190 l4 167
49 0 49 0 1 -152z m179 -20 c-2 -187 -7 -208 -56 -208 -46 0 -54 30 -54 212
l0 168 55 0 56 0 -1 -172z m154 141 c12 -62 7 -304 -7 -324 -17 -22 -62 -14
-74 13 -5 9 -7 90 -5 180 l3 162 38 0 c35 0 39 -3 45 -31z m138 -141 c2 -95 3
-178 1 -183 -2 -6 -13 -16 -24 -24 -18 -11 -24 -10 -35 1 -17 17 -17 22 -16
216 l2 162 34 0 34 0 4 -172z m150 10 c1 -194 1 -199 -16 -216 -11 -11 -17
-12 -35 -1 -11 8 -22 18 -24 24 -2 5 -1 88 1 183 l4 172 34 0 34 0 2 -162z
m150 0 c2 -90 0 -171 -5 -180 -12 -27 -57 -35 -74 -13 -14 20 -19 262 -7 324
6 28 10 31 45 31 l38 0 3 -162z m178 -6 c0 -182 -8 -212 -54 -212 -49 0 -54
21 -56 208 l-1 172 56 0 55 0 0 -168z m172 1 c4 -157 3 -170 -16 -190 -21 -25
-58 -30 -74 -10 -13 16 -14 34 -13 215 l1 152 49 0 49 0 4 -167z m188 -3 c0
-157 -2 -172 -20 -190 -24 -24 -48 -25 -75 -4 -18 14 -20 29 -23 189 l-4 175
61 0 61 0 0 -170z m169 -1 c-1 -170 -1 -172 -26 -197 l-26 -26 -23 28 c-23 26
-24 33 -24 197 l0 169 50 0 51 0 -2 -171z m190 24 c0 -170 -10 -213 -52 -227
-24 -9 -31 -7 -53 19 -19 23 -24 37 -20 59 3 16 6 89 6 162 l0 134 60 0 60 0
-1 -147z m191 -36 l0 -184 -25 -11 c-38 -17 -53 -15 -80 13 -28 27 -31 62 -18
258 l6 107 59 0 58 0 0 -183z m210 12 c0 -165 -1 -171 -22 -190 -28 -23 -66
-24 -96 -3 -21 15 -22 21 -22 190 l0 174 70 0 70 0 0 -171z m200 -7 c0 -125
-4 -182 -12 -190 -7 -7 -29 -12 -50 -12 -60 0 -68 26 -68 220 l0 160 65 0 65
0 0 -178z m-1870 -272 c28 -15 70 -5 93 23 l17 22 18 -22 c24 -31 66 -39 97
-19 14 9 25 24 25 33 0 12 6 9 25 -11 29 -31 66 -34 104 -6 26 18 30 18 50 4
44 -31 73 -33 108 -7 l32 24 41 -26 c45 -28 76 -31 104 -10 11 8 35 15 53 15
31 0 33 -2 33 -34 0 -72 32 -277 66 -426 43 -185 82 -300 135 -397 58 -107 61
-132 48 -394 -17 -350 7 -521 106 -754 26 -60 49 -116 52 -123 4 -10 -32 -12
-173 -10 l-179 3 2 80 c6 179 -59 718 -103 865 -41 137 -123 293 -202 385
-111 129 -200 181 -354 210 -81 15 -95 15 -175 0 -155 -29 -244 -81 -355 -210
-79 -92 -161 -248 -202 -385 -44 -147 -109 -686 -103 -865 l2 -80 -179 -3
c-141 -2 -177 0 -173 10 153 349 177 481 158 880 -5 128 -7 251 -2 273 4 22
24 70 45 107 90 161 172 479 203 788 8 73 9 75 36 78 16 2 39 -4 52 -12 34
-22 59 -20 105 9 l41 26 32 -24 c35 -26 64 -24 108 7 20 14 24 14 50 -4 37
-27 76 -25 102 4 21 23 22 24 29 6 4 -10 17 -24 28 -30z m-1450 20 c16 -13 41
-20 69 -20 l44 0 -7 -92 c-4 -51 -11 -165 -16 -253 -6 -88 -20 -231 -32 -317
-20 -147 -23 -157 -39 -142 -13 12 -18 38 -22 117 -3 56 -12 203 -21 327 -17
245 -20 400 -8 400 4 0 18 -9 32 -20z m412 -15 c26 -35 -15 -651 -55 -825 -12
-53 -13 -55 -49 -58 l-36 -3 14 64 c27 130 57 445 60 641 4 205 9 230 44 203
8 -7 18 -16 22 -22z m339 19 c7 -9 23 -20 36 -25 19 -7 23 -16 23 -51 -1 -71
-26 -230 -61 -378 -32 -137 -56 -187 -45 -92 21 178 28 306 24 425 -2 75 -1
137 3 137 3 0 13 -7 20 -16z m1641 -121 c-4 -119 3 -247 24 -425 11 -95 -13
-45 -45 92 -35 148 -60 307 -61 378 0 35 4 44 23 51 13 5 29 16 36 25 7 9 17
16 20 16 4 0 5 -62 3 -137z m378 113 c1 -303 28 -661 64 -833 l14 -64 -36 3
c-36 3 -37 5 -49 58 -25 107 -63 517 -63 669 0 140 1 152 21 170 21 20 49 18
49 -3z m390 -63 c0 -49 -7 -189 -16 -313 -9 -124 -18 -271 -21 -327 -4 -79 -9
-105 -22 -117 -16 -15 -19 -5 -39 142 -12 86 -26 229 -32 317 -5 88 -12 202
-16 253 l-7 92 44 0 c28 0 53 7 69 20 14 11 28 20 33 20 4 0 7 -39 7 -87z
m-2932 47 l52 -25 0 -137 c0 -144 -29 -458 -56 -615 -14 -82 -18 -93 -36 -93
-31 0 -98 22 -98 32 0 5 9 66 20 136 20 133 50 519 50 655 0 43 4 77 8 75 5
-1 32 -14 60 -28z m2732 -48 c0 -135 30 -521 50 -654 11 -70 20 -131 20 -136
0 -10 -67 -32 -98 -32 -18 0 -22 11 -36 93 -28 157 -56 472 -56 615 l0 137 53
26 c28 15 55 27 60 28 4 1 7 -34 7 -77z m-2421 -89 c1 -109 -6 -231 -24 -393
-33 -306 -39 -329 -82 -330 -16 0 -16 -8 2 97 26 160 56 496 54 627 -1 114 1
131 17 143 10 7 21 13 25 13 4 0 8 -71 8 -157z m2075 144 c16 -12 18 -29 17
-143 -2 -131 28 -467 54 -627 18 -105 18 -97 3 -97 -44 1 -50 24 -83 330 -25
227 -34 550 -16 550 4 0 15 -6 25 -13z m-2700 -209 c3 -112 8 -243 11 -293 8
-155 -13 -41 -35 195 -26 275 -26 300 -1 300 17 0 19 -14 25 -202z m746 43 c0
-86 -10 -240 -25 -374 -24 -223 -25 -228 -52 -251 -15 -14 -29 -23 -31 -22 -1
2 2 34 8 72 24 161 51 478 50 594 -1 69 -1 128 -1 131 1 3 12 4 26 1 l25 -4 0
-147z m1851 22 c-2 -118 24 -432 49 -597 6 -38 9 -70 8 -72 -2 -1 -16 8 -31
22 -27 23 -28 28 -52 251 -15 134 -25 288 -25 375 0 144 0 147 23 150 12 2 24
3 26 1 2 -1 3 -59 2 -130z m739 95 c0 -69 -40 -470 -50 -508 -7 -27 -8 -13 -5
55 3 50 8 181 11 293 6 188 8 202 25 202 16 0 19 -8 19 -42z m-1573 -607 c185
-36 361 -234 453 -509 50 -150 116 -678 108 -872 l-3 -85 -49 0 -49 0 2 80 c4
175 -63 709 -105 840 -41 125 -101 241 -152 291 -79 79 -181 139 -279 164 -91
23 -250 -49 -367 -165 -52 -53 -110 -163 -156 -301 -48 -142 -114 -648 -109
-834 l2 -75 -44 0 -44 0 -3 85 c-8 194 58 722 108 872 55 165 130 288 237 389
124 119 265 156 450 120z m-13 -180 c35 -16 82 -46 105 -67 89 -80 175 -229
220 -380 37 -125 91 -574 91 -756 l0 -88 -525 0 -525 0 0 88 c0 221 56 637
104 786 41 124 69 181 130 263 52 71 104 113 191 154 78 37 128 37 209 0z
m-1129 -77 c-11 -8 -57 -26 -103 -41 -106 -33 -236 -30 -320 7 -29 12 -51 24
-50 26 2 1 39 -6 83 -17 118 -28 228 -23 325 16 30 12 55 19 80 24 3 0 -4 -6
-15 -15z m2115 -9 c23 -14 134 -34 190 -35 30 0 91 9 135 19 44 11 81 18 83
17 1 -2 -21 -14 -50 -26 -84 -37 -214 -40 -320 -7 -92 29 -153 62 -87 48 20
-5 42 -12 49 -16z m-2472 -116 c79 -15 196 -7 281 21 76 24 93 19 28 -9 -135
-58 -222 -71 -318 -47 -71 18 -144 59 -166 93 -13 19 -7 18 49 -12 35 -18 91
-39 126 -46z m2940 59 c-23 -35 -96 -76 -167 -94 -96 -24 -183 -11 -318 47
-65 28 -48 33 28 9 140 -45 295 -36 404 25 33 18 62 33 64 34 2 0 -3 -9 -11
-21z m-3137 -166 c-80 -222 -231 -534 -382 -787 -89 -149 -128 -199 -151 -194
-13 3 -1 28 54 119 184 300 337 622 454 959 4 12 9 10 27 -7 l22 -22 -24 -68z
m3219 -2 c85 -244 248 -582 410 -847 61 -100 74 -129 62 -132 -23 -5 -62 45
-151 194 -151 253 -303 565 -382 787 -23 66 -23 67 -4 88 10 11 22 17 25 13 4
-5 22 -51 40 -103z m-2680 54 c0 -4 -30 -97 -66 -208 -178 -544 -185 -560
-272 -701 -76 -122 -79 -125 -123 -125 l-38 0 46 83 c103 185 194 381 248 532
71 197 159 405 177 416 16 10 28 11 28 3z m2108 -3 c18 -11 106 -219 177 -416
54 -151 146 -348 248 -532 l46 -83 -38 0 c-44 0 -47 3 -123 125 -87 141 -94
157 -272 701 -36 111 -66 204 -66 208 0 8 12 7 28 -3z m-2519 -30 c17 -11 9
-37 -76 -236 -96 -225 -284 -575 -380 -708 -26 -34 -41 -47 -60 -47 -13 0 -23
3 -21 8 2 4 39 68 84 142 150 250 298 555 384 788 22 62 37 73 69 53z m2971
-53 c86 -233 234 -538 384 -788 45 -74 83 -138 84 -142 2 -5 -8 -8 -21 -8 -19
0 -34 13 -60 48 -96 132 -284 482 -380 707 -85 199 -93 225 -76 236 32 20 47
9 69 -53z m-2743 -119 c-36 -90 -79 -207 -98 -259 -33 -97 -206 -448 -257
-523 -26 -40 -31 -42 -75 -41 -26 0 -49 3 -53 6 -3 4 23 53 59 110 135 216
300 547 391 785 24 64 32 74 59 81 18 5 33 8 35 7 2 -2 -26 -76 -61 -166z
m2450 151 c0 0 14 -33 29 -72 91 -239 255 -570 391 -786 36 -57 62 -106 59
-110 -4 -3 -27 -6 -53 -6 -44 -1 -49 1 -75 41 -51 75 -224 426 -257 523 -19
52 -62 168 -97 257 -35 90 -64 165 -64 167 0 3 15 0 32 -5 18 -5 34 -9 35 -9z
m-2553 -6 c9 -3 16 -11 16 -16 0 -25 -138 -336 -212 -478 -91 -174 -194 -352
-245 -422 -26 -35 -41 -48 -60 -48 -13 0 -23 3 -21 8 2 4 39 68 84 142 145
242 291 539 374 763 21 55 31 64 64 51z m2716 -51 c83 -224 229 -521 374 -763
45 -74 83 -138 84 -142 2 -5 -8 -8 -21 -8 -19 0 -34 13 -60 48 -51 70 -154
248 -245 422 -74 143 -212 453 -212 478 0 12 17 20 42 21 11 1 23 -17 38 -56z
m-2453 -220 c-3 -43 -13 -103 -21 -133 -9 -30 -25 -93 -35 -140 -26 -116 -76
-270 -116 -357 l-34 -73 -55 0 c-31 0 -56 4 -56 8 0 4 21 41 46 82 85 136 142
279 234 583 18 59 35 107 38 107 3 0 2 -35 -1 -77z m63 -201 c-6 -51 -21 -126
-32 -165 -25 -93 -115 -312 -134 -328 -31 -25 -32 7 -4 73 60 141 153 488 167
628 l8 75 3 -95 c2 -52 -2 -137 -8 -188z m2050 -32 c41 -164 84 -304 120 -388
28 -66 27 -98 -4 -73 -16 13 -105 225 -130 311 -27 91 -46 238 -45 355 l1 110
13 -95 c8 -52 28 -151 45 -220z m112 10 c57 -175 104 -281 172 -390 25 -41 46
-78 46 -82 0 -4 -25 -8 -56 -8 l-55 0 -34 73 c-40 87 -90 241 -116 357 -10 47
-26 110 -35 140 -8 30 -17 91 -20 135 l-4 80 26 -75 c14 -41 48 -145 76 -230z"/>
</g>
</svg>
