<!DOCTYPE svg PUBLIC "-//W3C//DTD SVG 1.1//EN" "http://www.w3.org/Graphics/SVG/1.1/DTD/svg11.dtd">

<!-- Uploaded to: SVG Repo, www.svgrepo.com, Transformed by: SVG Repo Mixer Tools -->
<svg fill="#6d0ee1" height="800px" width="800px" version="1.1" id="Layer_1" xmlns="http://www.w3.org/2000/svg" xmlns:xlink="http://www.w3.org/1999/xlink" viewBox="0 0 512 512" xml:space="preserve">

<g id="SVGRepo_bgCarrier" stroke-width="0"/>

<g id="SVGRepo_tracerCarrier" stroke-linecap="round" stroke-linejoin="round"/>

<g id="SVGRepo_iconCarrier"> <g> <g> <path d="M503.684,190.254c-5.141-2.979-11.5-3-16.663-0.055l-48.5,27.717c-33.305,19.046-71.981,27.006-109.886,23.396 c3.51-2.512,6.896-5.319,10.071-8.494c31-30.989,28.587-81.424,28.478-83.565c-0.468-8.489-7.26-15.282-15.761-15.75 c-1.197-0.03-22.348-1.021-45.505,6.311c-1.762-57.925-35.068-103.483-36.529-105.441c-6.304-8.478-20.478-8.478-26.783,0 c-1.46,1.958-34.766,47.516-36.529,105.442c-23.154-7.333-44.292-6.342-45.505-6.312c-8.5,0.467-15.293,7.26-15.761,15.75 c-0.109,2.141-2.522,52.576,28.49,83.565c3.188,3.19,6.606,5.965,10.131,8.485c-37.91,3.622-76.622-4.324-109.956-23.387 l-48.5-27.717c-5.163-2.956-11.522-2.935-16.663,0.055C3.163,193.244,0,198.743,0,204.7v138.978 c0,76,60.022,138.935,133.805,140.294c42.348,0.533,82.304-17.836,108.957-51.076c6.696-8.326,19.782-8.326,26.478,0 c25.918,32.301,64.696,51.636,108.957,51.076C451.978,482.613,512,419.678,512,343.678V204.7 C512,198.743,508.837,193.244,503.684,190.254z M139.13,389.384c-30.684,0-55.652-14.978-55.652-33.391 c0-18.413,24.968-33.391,55.652-33.391s55.652,14.978,55.652,33.391C194.783,374.406,169.815,389.384,139.13,389.384z M196.913,209.211c-11.587-11.587-16.066-28.706-17.772-41.37c9.023,1.215,20.221,4.03,30.171,9.633 c3.659,18.126,9.756,34.098,15.758,46.801C215.21,221.609,204.791,217.089,196.913,209.211z M255.968,211.601 c-8.022-16.564-16.663-40.575-16.663-67.086c0-26.369,8.685-50.456,16.728-67.086c8.022,16.565,16.663,40.576,16.663,67.086 C272.696,170.884,264.011,194.971,255.968,211.601z M286.928,224.279c6.002-12.702,12.099-28.675,15.758-46.802 c9.949-5.6,21.136-8.42,30.14-9.636c-1.707,12.685-6.196,29.826-17.729,41.37C307.214,217.094,296.791,221.613,286.928,224.279z M372.87,389.384c-30.684,0-55.652-14.978-55.652-33.391c0-18.413,24.968-33.391,55.652-33.391s55.652,14.978,55.652,33.391 C428.522,374.406,403.554,389.384,372.87,389.384z"/> </g> </g> </g>

</svg>